<svg width="21" height="21" viewBox="0 0 21 21" fill="none" xmlns="http://www.w3.org/2000/svg">
<g clip-path="url(#clip0_1_187)">
<path d="M14.8964 6.9641L14.6824 6.25976C14.4106 5.45968 13.5416 5.03147 12.7415 5.30331C12.2914 5.45622 11.938 5.80968 11.785 6.25976L11.5711 6.9641C11.391 7.5581 11.3532 8.18614 11.4607 8.79743C11.5588 9.3121 11.8856 9.75426 12.3487 9.9991L12.109 15.3568C12.077 15.6558 12.174 15.9543 12.3757 16.1774C12.8096 16.652 13.5461 16.685 14.0207 16.2511C14.0463 16.2277 14.0709 16.2031 14.0944 16.1774C14.2916 15.9607 14.3885 15.6709 14.361 15.3791L14.12 9.99843C14.5826 9.75347 14.9088 9.3116 15.0067 8.79743C15.1143 8.18614 15.0765 7.5581 14.8964 6.9641ZM14.35 8.68143C14.2779 9.05118 14.0144 9.35456 13.6584 9.47777C13.5233 9.52856 13.4362 9.66056 13.4427 9.80476L13.6961 15.4318C13.7077 15.5421 13.6713 15.6522 13.5961 15.7338C13.3953 15.9325 13.0721 15.9325 12.8714 15.7338C12.7924 15.6456 12.7565 15.5269 12.7734 15.4098L13.0247 9.80476C13.0312 9.66056 12.9442 9.52856 12.8091 9.47777C12.4531 9.35456 12.1896 9.05118 12.1174 8.68143C12.0282 8.17393 12.0596 7.65256 12.209 7.15943L12.4231 6.45477C12.5886 6.00706 13.0858 5.77835 13.5336 5.94393C13.7703 6.03147 13.9568 6.2181 14.0444 6.45477L14.2584 7.15943C14.4076 7.6526 14.439 8.17393 14.35 8.68143Z" fill="#FF1E00"/>
<path d="M9.73446 5.22342C9.55037 5.22342 9.40112 5.37267 9.40112 5.55675V8.41875L8.49879 9.32109C8.43204 9.38759 8.39654 9.47929 8.40112 9.57342L8.69279 15.4068C8.69975 15.5325 8.65408 15.6556 8.56679 15.7464C8.38433 15.9305 8.08716 15.9318 7.90304 15.7493C7.90204 15.7484 7.90108 15.7474 7.90012 15.7464C7.81279 15.6556 7.76716 15.5325 7.77412 15.4068L8.06779 9.57342C8.07246 9.47934 8.03708 9.38767 7.97046 9.32109L7.06779 8.41875V5.55675C7.06779 5.37267 6.91854 5.22342 6.73446 5.22342C6.55037 5.22342 6.40112 5.37267 6.40112 5.55675V8.55675C6.40112 8.64517 6.43629 8.72992 6.49879 8.79242L7.39412 9.68809L7.10979 15.3744C7.07954 15.9955 7.55854 16.5236 8.17966 16.5539C8.80079 16.5841 9.32887 16.1051 9.35912 15.484C9.36091 15.4475 9.36091 15.411 9.35912 15.3745L9.07479 9.68813L9.97012 8.79246C10.0326 8.72996 10.0678 8.64521 10.0678 8.55679V5.55679C10.0678 5.37267 9.91854 5.22342 9.73446 5.22342Z" fill="#FF1E00"/>
<path d="M7.73446 5.22342C7.55037 5.22342 7.40112 5.37267 7.40112 5.55675V8.22342C7.40112 8.4075 7.55037 8.55675 7.73446 8.55675C7.91854 8.55675 8.06779 8.4075 8.06779 8.22342V5.55675C8.06779 5.37267 7.91854 5.22342 7.73446 5.22342Z" fill="#FF1E00"/>
<path d="M8.73421 5.22342C8.55013 5.22342 8.40088 5.37267 8.40088 5.55675V8.22342C8.40088 8.4075 8.55013 8.55675 8.73421 8.55675C8.9183 8.55675 9.06755 8.4075 9.06755 8.22342V5.55675C9.06755 5.37267 8.9183 5.22342 8.73421 5.22342Z" fill="#FF1E00"/>
<path d="M10.7341 0.223389C5.2113 0.223389 0.734131 4.70056 0.734131 10.2234C0.734131 15.7462 5.2113 20.2234 10.7341 20.2234C16.257 20.2234 20.7341 15.7462 20.7341 10.2234C20.7279 4.70314 16.2544 0.229639 10.7341 0.223389ZM10.7341 19.5567C5.57946 19.5567 1.4008 15.3781 1.4008 10.2234C1.4008 5.06872 5.57946 0.890055 10.7341 0.890055C15.8888 0.890055 20.0675 5.06872 20.0675 10.2234C20.0616 15.3756 15.8863 19.5508 10.7341 19.5567Z" fill="#FF1E00"/>
<path d="M11.8157 16.4806C11.7978 16.2974 11.6348 16.1633 11.4515 16.1812C11.4472 16.1816 11.443 16.1821 11.4387 16.1827L11.44 16.1824C10.9707 16.2369 10.4966 16.2369 10.0273 16.1824C9.84442 16.1609 9.67879 16.2918 9.65733 16.4747C9.63587 16.6576 9.76675 16.8232 9.94967 16.8447C10.4701 16.9055 10.9959 16.9055 11.5163 16.8447C11.6995 16.8269 11.8336 16.6638 11.8157 16.4806Z" fill="#FF1E00"/>
<path d="M15.8348 5.92811C15.7165 5.78706 15.5063 5.76861 15.3652 5.88694C15.3648 5.88731 15.3643 5.88773 15.3638 5.88811C15.2231 6.00677 15.2052 6.21702 15.3238 6.35777C17.3336 8.74361 17.1798 12.2715 14.9701 14.4734C14.8397 14.6034 14.8393 14.8145 14.9693 14.9449C15.0993 15.0754 15.3104 15.0757 15.4408 14.9458C17.8965 12.4994 18.0678 8.57932 15.8348 5.92811Z" fill="#FF1E00"/>
<path d="M8.50003 4.63045C8.49987 4.63045 8.49972 4.62944 8.49956 4.62944C8.49931 4.62944 8.49906 4.63045 8.49878 4.63045H8.50003Z" fill="#FF1E00"/>
<path d="M12.306 3.74309C11.0033 3.43088 9.63706 3.5148 8.38235 3.98409C8.21002 4.04888 8.12289 4.24113 8.18768 4.41342C8.23652 4.5433 8.36068 4.62926 8.49939 4.62938C8.53927 4.62917 8.57877 4.62188 8.61602 4.60776C9.74593 4.18522 10.9763 4.10976 12.1493 4.39109C12.3283 4.43434 12.5084 4.32438 12.5517 4.14542C12.5949 3.96647 12.485 3.78634 12.306 3.74309Z" fill="#FF1E00"/>
<path d="M6.48394 14.4567C5.36023 13.3349 4.73044 11.8112 4.73428 10.2234C4.73098 8.95481 5.13282 7.71831 5.88128 6.69406C5.9919 6.54689 5.96228 6.33793 5.81511 6.22731C5.66794 6.11668 5.45898 6.14631 5.34836 6.29347C5.3464 6.2961 5.34448 6.29872 5.34261 6.30139C3.4154 8.95089 3.69898 12.608 6.01161 14.9287C6.14194 15.0591 6.35336 15.0592 6.48378 14.9289C6.61419 14.7986 6.61428 14.5871 6.48394 14.4567Z" fill="#FF1E00"/>
</g>
<defs>
<clipPath id="clip0_1_187">
<rect width="20" height="20" fill="white" transform="translate(0.734375 0.223389)"/>
</clipPath>
</defs>
</svg>
